<?xml version="1.0" encoding="UTF-8" standalone="no"?>
<svg
   viewBox="226 3 1057 1055"
   width="831px"
   height="1052px"
   version="1.1"
   id="svg226"
   sodipodi:docname="Default.svg"
   inkscape:version="1.4 (e7c3feb100, 2024-10-09)"
   xmlns:inkscape="http://www.inkscape.org/namespaces/inkscape"
   xmlns:sodipodi="http://sodipodi.sourceforge.net/DTD/sodipodi-0.dtd"
   xmlns="http://www.w3.org/2000/svg"
   xmlns:svg="http://www.w3.org/2000/svg">
  <defs
     id="defs226" />
  <sodipodi:namedview
     id="namedview226"
     pagecolor="#ffffff"
     bordercolor="#000000"
     borderopacity="0.25"
     inkscape:showpageshadow="2"
     inkscape:pageopacity="0.0"
     inkscape:pagecheckerboard="0"
     inkscape:deskcolor="#d1d1d1"
     inkscape:zoom="0.78802281"
     inkscape:cx="314.7117"
     inkscape:cy="602.13993"
     inkscape:window-width="1906"
     inkscape:window-height="1034"
     inkscape:window-x="0"
     inkscape:window-y="0"
     inkscape:window-maximized="1"
     inkscape:current-layer="svg226" />
  <line
     x1="850"
     y1="610"
     x2="840"
     y2="610"
     style="stroke:#0bf;stroke-width:1;"
     id="line1" />
  <line
     x1="482"
     y1="350"
     x2="472"
     y2="350"
     style="stroke:#0bf;stroke-width:1;"
     id="line2" />
  <line
     x1="840"
     y1="610"
     x2="482"
     y2="350"
     style="stroke:#0bf;stroke-width:1;"
     id="line3" />
  <line
     x1="842.5"
     y1="610"
     x2="846.03553390593"
     y2="613.53553390593"
     style="stroke:#0bf;stroke-width:2;"
     id="line4" />
  <line
     x1="842.5"
     y1="610"
     x2="846.03553390593"
     y2="606.46446609407"
     style="stroke:#0bf;stroke-width:2;"
     id="line5" />
  <line
     x1="477"
     y1="350"
     x2="480.53553390593"
     y2="353.53553390593"
     style="stroke:#0bf;stroke-width:2;"
     id="line6" />
  <line
     x1="477"
     y1="350"
     x2="480.53553390593"
     y2="346.46446609407"
     style="stroke:#0bf;stroke-width:2;"
     id="line7" />
  <line
     x1="850"
     y1="630"
     x2="840"
     y2="630"
     style="stroke:#bbb;stroke-width:1;"
     id="line8" />
  <line
     x1="502"
     y1="50"
     x2="492"
     y2="50"
     style="stroke:#bbb;stroke-width:1;"
     id="line9" />
  <line
     x1="840"
     y1="630"
     x2="502"
     y2="50"
     style="stroke:#bbb;stroke-width:1;"
     id="line10" />
  <line
     x1="842.5"
     y1="630"
     x2="846.03553390593"
     y2="633.53553390593"
     style="stroke:#bbb;stroke-width:2;"
     id="line11" />
  <line
     x1="842.5"
     y1="630"
     x2="846.03553390593"
     y2="626.46446609407"
     style="stroke:#bbb;stroke-width:2;"
     id="line12" />
  <line
     x1="497"
     y1="50"
     x2="500.53553390593"
     y2="53.535533905933"
     style="stroke:#bbb;stroke-width:2;"
     id="line13" />
  <line
     x1="497"
     y1="50"
     x2="500.53553390593"
     y2="46.464466094067"
     style="stroke:#bbb;stroke-width:2;"
     id="line14" />
  <line
     x1="850"
     y1="610"
     x2="840"
     y2="610"
     style="stroke:#0bf;stroke-width:1;"
     id="line15" />
  <line
     x1="482"
     y1="350"
     x2="472"
     y2="350"
     style="stroke:#0bf;stroke-width:1;"
     id="line16" />
  <line
     x1="840"
     y1="610"
     x2="482"
     y2="350"
     style="stroke:#0bf;stroke-width:1;"
     id="line17" />
  <line
     x1="842.5"
     y1="610"
     x2="846.03553390593"
     y2="613.53553390593"
     style="stroke:#0bf;stroke-width:2;"
     id="line18" />
  <line
     x1="842.5"
     y1="610"
     x2="846.03553390593"
     y2="606.46446609407"
     style="stroke:#0bf;stroke-width:2;"
     id="line19" />
  <line
     x1="477"
     y1="350"
     x2="480.53553390593"
     y2="353.53553390593"
     style="stroke:#0bf;stroke-width:2;"
     id="line20" />
  <line
     x1="477"
     y1="350"
     x2="480.53553390593"
     y2="346.46446609407"
     style="stroke:#0bf;stroke-width:2;"
     id="line21" />
  <line
     x1="512"
     y1="820"
     x2="522"
     y2="820"
     style="stroke:#0b0;stroke-width:1;"
     id="line22" />
  <line
     x1="841"
     y1="48"
     x2="851"
     y2="48"
     style="stroke:#0b0;stroke-width:1;"
     id="line23" />
  <line
     x1="522"
     y1="820"
     x2="841"
     y2="48"
     style="stroke:#0b0;stroke-width:1;"
     id="line24" />
  <line
     x1="519.5"
     y1="820"
     x2="515.96446609407"
     y2="823.53553390593"
     style="stroke:#0b0;stroke-width:2;"
     id="line25" />
  <line
     x1="519.5"
     y1="820"
     x2="515.96446609407"
     y2="816.46446609407"
     style="stroke:#0b0;stroke-width:2;"
     id="line26" />
  <line
     x1="846"
     y1="48"
     x2="842.46446609407"
     y2="51.535533905933"
     style="stroke:#0b0;stroke-width:2;"
     id="line27" />
  <line
     x1="846"
     y1="48"
     x2="842.46446609407"
     y2="44.464466094067"
     style="stroke:#0b0;stroke-width:2;"
     id="line28" />
  <line
     x1="512"
     y1="840"
     x2="522"
     y2="840"
     style="stroke:#bbb;stroke-width:1;"
     id="line29" />
  <line
     x1="840"
     y1="900"
     x2="850"
     y2="900"
     style="stroke:#bbb;stroke-width:1;"
     id="line30" />
  <line
     x1="522"
     y1="840"
     x2="840"
     y2="900"
     style="stroke:#bbb;stroke-width:1;"
     id="line31" />
  <line
     x1="519.5"
     y1="840"
     x2="515.96446609407"
     y2="843.53553390593"
     style="stroke:#bbb;stroke-width:2;"
     id="line32" />
  <line
     x1="519.5"
     y1="840"
     x2="515.96446609407"
     y2="836.46446609407"
     style="stroke:#bbb;stroke-width:2;"
     id="line33" />
  <line
     x1="845"
     y1="900"
     x2="841.46446609407"
     y2="903.53553390593"
     style="stroke:#bbb;stroke-width:2;"
     id="line34" />
  <line
     x1="845"
     y1="900"
     x2="841.46446609407"
     y2="896.46446609407"
     style="stroke:#bbb;stroke-width:2;"
     id="line35" />
  <line
     x1="512"
     y1="820"
     x2="522"
     y2="820"
     style="stroke:#bbb;stroke-width:1;"
     id="line36" />
  <line
     x1="841"
     y1="48"
     x2="851"
     y2="48"
     style="stroke:#bbb;stroke-width:1;"
     id="line37" />
  <line
     x1="522"
     y1="820"
     x2="841"
     y2="48"
     style="stroke:#bbb;stroke-width:1;"
     id="line38" />
  <line
     x1="519.5"
     y1="820"
     x2="515.96446609407"
     y2="823.53553390593"
     style="stroke:#bbb;stroke-width:2;"
     id="line39" />
  <line
     x1="519.5"
     y1="820"
     x2="515.96446609407"
     y2="816.46446609407"
     style="stroke:#bbb;stroke-width:2;"
     id="line40" />
  <line
     x1="846"
     y1="48"
     x2="842.46446609407"
     y2="51.535533905933"
     style="stroke:#bbb;stroke-width:2;"
     id="line41" />
  <line
     x1="846"
     y1="48"
     x2="842.46446609407"
     y2="44.464466094067"
     style="stroke:#bbb;stroke-width:2;"
     id="line42" />
  <line
     x1="492"
     y1="910"
     x2="502"
     y2="910"
     style="stroke:#bbb;stroke-width:1;"
     id="line43" />
  <line
     x1="841"
     y1="48"
     x2="851"
     y2="48"
     style="stroke:#bbb;stroke-width:1;"
     id="line44" />
  <line
     x1="502"
     y1="910"
     x2="841"
     y2="48"
     style="stroke:#bbb;stroke-width:1;"
     id="line45" />
  <line
     x1="499.5"
     y1="910"
     x2="495.96446609407"
     y2="913.53553390593"
     style="stroke:#bbb;stroke-width:2;"
     id="line46" />
  <line
     x1="499.5"
     y1="910"
     x2="495.96446609407"
     y2="906.46446609407"
     style="stroke:#bbb;stroke-width:2;"
     id="line47" />
  <line
     x1="846"
     y1="48"
     x2="842.46446609407"
     y2="51.535533905933"
     style="stroke:#bbb;stroke-width:2;"
     id="line48" />
  <line
     x1="846"
     y1="48"
     x2="842.46446609407"
     y2="44.464466094067"
     style="stroke:#bbb;stroke-width:2;"
     id="line49" />
  <line
     x1="320"
     y1="930"
     x2="310"
     y2="930"
     style="stroke:#b0b;stroke-width:1;"
     id="line50" />
  <line
     x1="310"
     y1="50"
     x2="320"
     y2="50"
     style="stroke:#b0b;stroke-width:1;"
     id="line51" />
  <line
     x1="310"
     y1="930"
     x2="310"
     y2="50"
     style="stroke:#b0b;stroke-width:1;"
     id="line52" />
  <line
     x1="312.5"
     y1="930"
     x2="316.03553390593"
     y2="933.53553390593"
     style="stroke:#b0b;stroke-width:2;"
     id="line53" />
  <line
     x1="312.5"
     y1="930"
     x2="316.03553390593"
     y2="926.46446609407"
     style="stroke:#b0b;stroke-width:2;"
     id="line54" />
  <line
     x1="315"
     y1="50"
     x2="311.46446609407"
     y2="53.535533905933"
     style="stroke:#b0b;stroke-width:2;"
     id="line55" />
  <line
     x1="315"
     y1="50"
     x2="311.46446609407"
     y2="46.464466094067"
     style="stroke:#b0b;stroke-width:2;"
     id="line56" />
  <line
     x1="851"
     y1="208"
     x2="841"
     y2="208"
     style="stroke:#333;stroke-width:1;"
     id="line57" />
  <line
     x1="522"
     y1="670"
     x2="512"
     y2="670"
     style="stroke:#333;stroke-width:1;"
     id="line58" />
  <line
     x1="841"
     y1="208"
     x2="522"
     y2="670"
     style="stroke:#333;stroke-width:1;"
     id="line59" />
  <line
     x1="843.5"
     y1="208"
     x2="847.03553390593"
     y2="211.53553390593"
     style="stroke:#333;stroke-width:2;"
     id="line60" />
  <line
     x1="843.5"
     y1="208"
     x2="847.03553390593"
     y2="204.46446609407"
     style="stroke:#333;stroke-width:2;"
     id="line61" />
  <line
     x1="517"
     y1="670"
     x2="520.53553390593"
     y2="673.53553390593"
     style="stroke:#333;stroke-width:2;"
     id="line62" />
  <line
     x1="517"
     y1="670"
     x2="520.53553390593"
     y2="666.46446609407"
     style="stroke:#333;stroke-width:2;"
     id="line63" />
  <line
     x1="851"
     y1="228"
     x2="841"
     y2="228"
     style="stroke:#0b0;stroke-width:1;"
     id="line64" />
  <line
     x1="482"
     y1="610"
     x2="472"
     y2="610"
     style="stroke:#0b0;stroke-width:1;"
     id="line65" />
  <line
     x1="841"
     y1="228"
     x2="482"
     y2="610"
     style="stroke:#0b0;stroke-width:1;"
     id="line66" />
  <line
     x1="843.5"
     y1="228"
     x2="847.03553390593"
     y2="231.53553390593"
     style="stroke:#0b0;stroke-width:2;"
     id="line67" />
  <line
     x1="843.5"
     y1="228"
     x2="847.03553390593"
     y2="224.46446609407"
     style="stroke:#0b0;stroke-width:2;"
     id="line68" />
  <line
     x1="477"
     y1="610"
     x2="480.53553390593"
     y2="613.53553390593"
     style="stroke:#0b0;stroke-width:2;"
     id="line69" />
  <line
     x1="477"
     y1="610"
     x2="480.53553390593"
     y2="606.46446609407"
     style="stroke:#0b0;stroke-width:2;"
     id="line70" />
  <line
     x1="850"
     y1="500"
     x2="840"
     y2="500"
     style="stroke:#b0b;stroke-width:1;"
     id="line71" />
  <line
     x1="482"
     y1="1030"
     x2="472"
     y2="1030"
     style="stroke:#b0b;stroke-width:1;"
     id="line72" />
  <line
     x1="840"
     y1="500"
     x2="482"
     y2="1030"
     style="stroke:#b0b;stroke-width:1;"
     id="line73" />
  <line
     x1="842.5"
     y1="500"
     x2="846.03553390593"
     y2="503.53553390593"
     style="stroke:#b0b;stroke-width:2;"
     id="line74" />
  <line
     x1="842.5"
     y1="500"
     x2="846.03553390593"
     y2="496.46446609407"
     style="stroke:#b0b;stroke-width:2;"
     id="line75" />
  <line
     x1="477"
     y1="1030"
     x2="480.53553390593"
     y2="1033.5355339059"
     style="stroke:#b0b;stroke-width:2;"
     id="line76" />
  <line
     x1="477"
     y1="1030"
     x2="480.53553390593"
     y2="1026.4644660941"
     style="stroke:#b0b;stroke-width:2;"
     id="line77" />
  <line
     x1="850"
     y1="520"
     x2="840"
     y2="520"
     style="stroke:#c00;stroke-width:1;"
     id="line78" />
  <line
     x1="840"
     y1="900"
     x2="850"
     y2="900"
     style="stroke:#c00;stroke-width:1;"
     id="line79" />
  <line
     x1="840"
     y1="520"
     x2="840"
     y2="900"
     style="stroke:#c00;stroke-width:1;"
     id="line80" />
  <line
     x1="842.5"
     y1="520"
     x2="846.03553390593"
     y2="523.53553390593"
     style="stroke:#c00;stroke-width:2;"
     id="line81" />
  <line
     x1="842.5"
     y1="520"
     x2="846.03553390593"
     y2="516.46446609407"
     style="stroke:#c00;stroke-width:2;"
     id="line82" />
  <line
     x1="845"
     y1="900"
     x2="841.46446609407"
     y2="903.53553390593"
     style="stroke:#c00;stroke-width:2;"
     id="line83" />
  <line
     x1="845"
     y1="900"
     x2="841.46446609407"
     y2="896.46446609407"
     style="stroke:#c00;stroke-width:2;"
     id="line84" />
  <line
     x1="850"
     y1="540"
     x2="840"
     y2="540"
     style="stroke:#333;stroke-width:1;"
     id="line85" />
  <line
     x1="502"
     y1="50"
     x2="492"
     y2="50"
     style="stroke:#333;stroke-width:1;"
     id="line86" />
  <line
     x1="840"
     y1="540"
     x2="502"
     y2="50"
     style="stroke:#333;stroke-width:1;"
     id="line87" />
  <line
     x1="842.5"
     y1="540"
     x2="846.03553390593"
     y2="543.53553390593"
     style="stroke:#333;stroke-width:2;"
     id="line88" />
  <line
     x1="842.5"
     y1="540"
     x2="846.03553390593"
     y2="536.46446609407"
     style="stroke:#333;stroke-width:2;"
     id="line89" />
  <line
     x1="497"
     y1="50"
     x2="500.53553390593"
     y2="53.535533905933"
     style="stroke:#333;stroke-width:2;"
     id="line90" />
  <line
     x1="497"
     y1="50"
     x2="500.53553390593"
     y2="46.464466094067"
     style="stroke:#333;stroke-width:2;"
     id="line91" />
  <line
     x1="870"
     y1="840"
     x2="860"
     y2="840"
     style="stroke:#333;stroke-width:1;"
     id="line92" />
  <line
     x1="522"
     y1="670"
     x2="512"
     y2="670"
     style="stroke:#333;stroke-width:1;"
     id="line93" />
  <line
     x1="860"
     y1="840"
     x2="522"
     y2="670"
     style="stroke:#333;stroke-width:1;"
     id="line94" />
  <line
     x1="862.5"
     y1="840"
     x2="866.03553390593"
     y2="843.53553390593"
     style="stroke:#333;stroke-width:2;"
     id="line95" />
  <line
     x1="862.5"
     y1="840"
     x2="866.03553390593"
     y2="836.46446609407"
     style="stroke:#333;stroke-width:2;"
     id="line96" />
  <line
     x1="517"
     y1="670"
     x2="520.53553390593"
     y2="673.53553390593"
     style="stroke:#333;stroke-width:2;"
     id="line97" />
  <line
     x1="517"
     y1="670"
     x2="520.53553390593"
     y2="666.46446609407"
     style="stroke:#333;stroke-width:2;"
     id="line98" />
  <line
     x1="870"
     y1="820"
     x2="860"
     y2="820"
     style="stroke:#b0b;stroke-width:1;"
     id="line99" />
  <line
     x1="840"
     y1="900"
     x2="850"
     y2="900"
     style="stroke:#b0b;stroke-width:1;"
     id="line100" />
  <line
     x1="860"
     y1="820"
     x2="840"
     y2="900"
     style="stroke:#b0b;stroke-width:1;"
     id="line101" />
  <line
     x1="862.5"
     y1="820"
     x2="866.03553390593"
     y2="823.53553390593"
     style="stroke:#b0b;stroke-width:2;"
     id="line102" />
  <line
     x1="862.5"
     y1="820"
     x2="866.03553390593"
     y2="816.46446609407"
     style="stroke:#b0b;stroke-width:2;"
     id="line103" />
  <line
     x1="845"
     y1="900"
     x2="841.46446609407"
     y2="903.53553390593"
     style="stroke:#b0b;stroke-width:2;"
     id="line104" />
  <line
     x1="845"
     y1="900"
     x2="841.46446609407"
     y2="896.46446609407"
     style="stroke:#b0b;stroke-width:2;"
     id="line105" />
  <line
     x1="492"
     y1="190"
     x2="502"
     y2="190"
     style="stroke:#c00;stroke-width:1;"
     id="line106" />
  <line
     x1="840"
     y1="300"
     x2="850"
     y2="300"
     style="stroke:#c00;stroke-width:1;"
     id="line107" />
  <line
     x1="502"
     y1="190"
     x2="840"
     y2="300"
     style="stroke:#c00;stroke-width:1;"
     id="line108" />
  <line
     x1="499.5"
     y1="190"
     x2="495.96446609407"
     y2="193.53553390593"
     style="stroke:#c00;stroke-width:2;"
     id="line109" />
  <line
     x1="499.5"
     y1="190"
     x2="495.96446609407"
     y2="186.46446609407"
     style="stroke:#c00;stroke-width:2;"
     id="line110" />
  <line
     x1="845"
     y1="300"
     x2="841.46446609407"
     y2="303.53553390593"
     style="stroke:#c00;stroke-width:2;"
     id="line111" />
  <line
     x1="845"
     y1="300"
     x2="841.46446609407"
     y2="296.46446609407"
     style="stroke:#c00;stroke-width:2;"
     id="line112" />
  <line
     x1="492"
     y1="210"
     x2="502"
     y2="210"
     style="stroke:#cb0;stroke-width:1;"
     id="line113" />
  <line
     x1="840"
     y1="710"
     x2="850"
     y2="710"
     style="stroke:#cb0;stroke-width:1;"
     id="line114" />
  <line
     x1="502"
     y1="210"
     x2="840"
     y2="710"
     style="stroke:#cb0;stroke-width:1;"
     id="line115" />
  <line
     x1="499.5"
     y1="210"
     x2="495.96446609407"
     y2="213.53553390593"
     style="stroke:#cb0;stroke-width:2;"
     id="line116" />
  <line
     x1="499.5"
     y1="210"
     x2="495.96446609407"
     y2="206.46446609407"
     style="stroke:#cb0;stroke-width:2;"
     id="line117" />
  <line
     x1="845"
     y1="710"
     x2="841.46446609407"
     y2="713.53553390593"
     style="stroke:#cb0;stroke-width:2;"
     id="line118" />
  <line
     x1="845"
     y1="710"
     x2="841.46446609407"
     y2="706.46446609407"
     style="stroke:#cb0;stroke-width:2;"
     id="line119" />
  <line
     x1="320"
     y1="230"
     x2="310"
     y2="230"
     style="stroke:#333;stroke-width:1;"
     id="line120" />
  <line
     x1="360"
     y1="450"
     x2="370"
     y2="450"
     style="stroke:#333;stroke-width:1;"
     id="line121" />
  <line
     x1="310"
     y1="230"
     x2="360"
     y2="450"
     style="stroke:#333;stroke-width:1;"
     id="line122" />
  <line
     x1="312.5"
     y1="230"
     x2="316.03553390593"
     y2="233.53553390593"
     style="stroke:#333;stroke-width:2;"
     id="line123" />
  <line
     x1="312.5"
     y1="230"
     x2="316.03553390593"
     y2="226.46446609407"
     style="stroke:#333;stroke-width:2;"
     id="line124" />
  <line
     x1="365"
     y1="450"
     x2="361.46446609407"
     y2="453.53553390593"
     style="stroke:#333;stroke-width:2;"
     id="line125" />
  <line
     x1="365"
     y1="450"
     x2="361.46446609407"
     y2="446.46446609407"
     style="stroke:#333;stroke-width:2;"
     id="line126" />
  <line
     x1="492"
     y1="250"
     x2="502"
     y2="250"
     style="stroke:#0b0;stroke-width:1;"
     id="line127" />
  <line
     x1="841"
     y1="48"
     x2="851"
     y2="48"
     style="stroke:#0b0;stroke-width:1;"
     id="line128" />
  <line
     x1="502"
     y1="250"
     x2="841"
     y2="48"
     style="stroke:#0b0;stroke-width:1;"
     id="line129" />
  <line
     x1="499.5"
     y1="250"
     x2="495.96446609407"
     y2="253.53553390593"
     style="stroke:#0b0;stroke-width:2;"
     id="line130" />
  <line
     x1="499.5"
     y1="250"
     x2="495.96446609407"
     y2="246.46446609407"
     style="stroke:#0b0;stroke-width:2;"
     id="line131" />
  <line
     x1="846"
     y1="48"
     x2="842.46446609407"
     y2="51.535533905933"
     style="stroke:#0b0;stroke-width:2;"
     id="line132" />
  <line
     x1="846"
     y1="48"
     x2="842.46446609407"
     y2="44.464466094067"
     style="stroke:#0b0;stroke-width:2;"
     id="line133" />
  <line
     x1="492"
     y1="270"
     x2="502"
     y2="270"
     style="stroke:#0bf;stroke-width:1;"
     id="line134" />
  <line
     x1="840"
     y1="900"
     x2="850"
     y2="900"
     style="stroke:#0bf;stroke-width:1;"
     id="line135" />
  <line
     x1="502"
     y1="270"
     x2="840"
     y2="900"
     style="stroke:#0bf;stroke-width:1;"
     id="line136" />
  <line
     x1="499.5"
     y1="270"
     x2="495.96446609407"
     y2="273.53553390593"
     style="stroke:#0bf;stroke-width:2;"
     id="line137" />
  <line
     x1="499.5"
     y1="270"
     x2="495.96446609407"
     y2="266.46446609407"
     style="stroke:#0bf;stroke-width:2;"
     id="line138" />
  <line
     x1="845"
     y1="900"
     x2="841.46446609407"
     y2="903.53553390593"
     style="stroke:#0bf;stroke-width:2;"
     id="line139" />
  <line
     x1="845"
     y1="900"
     x2="841.46446609407"
     y2="896.46446609407"
     style="stroke:#0bf;stroke-width:2;"
     id="line140" />
  <rect
     width="172"
     height="20"
     x="850"
     y="580"
     style="fill:#007;stroke:black;"
     id="rect140" />
  <text
     width="172"
     height="20"
     x="855"
     y="594"
     style="fill:#fff;"
     font-family="Arial"
     font-size="16px"
     id="text140"> abgeleitet</text>
  <rect
     width="172"
     height="20"
     x="850"
     y="600"
     style="fill:none;stroke:black;"
     id="rect141" />
  <text
     width="172"
     height="20"
     x="855"
     y="614"
     style="fill:black;"
     font-family="Arial"
     font-size="16px"
     id="text141">FK_Dienstleistung</text>
  <rect
     width="172"
     height="20"
     x="850"
     y="620"
     style="fill:none;stroke:black;"
     id="rect142" />
  <text
     width="172"
     height="20"
     x="855"
     y="634"
     style="fill:black;"
     font-family="Arial"
     font-size="16px"
     id="text142">FK_Ticket</text>
  <rect
     width="172"
     height="20"
     x="340"
     y="790"
     style="fill:#007;stroke:black;"
     id="rect143" />
  <text
     width="172"
     height="20"
     x="345"
     y="804"
     style="fill:#fff;"
     font-family="Arial"
     font-size="16px"
     id="text143"> arbeitet</text>
  <rect
     width="172"
     height="20"
     x="340"
     y="810"
     style="fill:#aea;stroke:black;"
     id="rect144" />
  <text
     width="172"
     height="20"
     x="345"
     y="824"
     style="fill:black;"
     font-family="Arial"
     font-size="16px"
     id="text144">FK_Mitarbeiter</text>
  <rect
     width="172"
     height="20"
     x="340"
     y="830"
     style="fill:#aea;stroke:black;"
     id="rect145" />
  <text
     width="172"
     height="20"
     x="345"
     y="844"
     style="fill:black;"
     font-family="Arial"
     font-size="16px"
     id="text145">FK_Kunde</text>
  <rect
     width="172"
     height="20"
     x="370"
     y="420"
     style="fill:#007;stroke:black;"
     id="rect146" />
  <text
     width="172"
     height="20"
     x="375"
     y="434"
     style="fill:#fff;"
     font-family="Arial"
     font-size="16px"
     id="text146"> art</text>
  <rect
     width="172"
     height="20"
     x="370"
     y="440"
     style="fill:#aea;stroke:black;"
     id="rect147" />
  <text
     width="172"
     height="20"
     x="375"
     y="454"
     style="fill:black;"
     font-family="Arial"
     font-size="16px"
     id="text147">PK_Art</text>
  <rect
     width="172"
     height="20"
     x="370"
     y="460"
     style="fill:none;stroke:black;"
     id="rect148" />
  <text
     width="172"
     height="20"
     x="375"
     y="474"
     style="fill:black;"
     font-family="Arial"
     font-size="16px"
     id="text148">Artname</text>
  <rect
     width="172"
     height="20"
     x="370"
     y="480"
     style="fill:none;stroke:black;"
     id="rect149" />
  <text
     width="172"
     height="20"
     x="375"
     y="494"
     style="fill:black;"
     font-family="Arial"
     font-size="16px"
     id="text149">Beschreibung</text>
  <rect
     width="172"
     height="20"
     x="320"
     y="880"
     style="fill:#007;stroke:black;"
     id="rect150" />
  <text
     width="172"
     height="20"
     x="325"
     y="894"
     style="fill:#fff;"
     font-family="Arial"
     font-size="16px"
     id="text150"> bearbeitet</text>
  <rect
     width="172"
     height="20"
     x="320"
     y="900"
     style="fill:#aea;stroke:black;"
     id="rect151" />
  <text
     width="172"
     height="20"
     x="325"
     y="914"
     style="fill:black;"
     font-family="Arial"
     font-size="16px"
     id="text151">FK_Mitarbeiter</text>
  <rect
     width="172"
     height="20"
     x="320"
     y="920"
     style="fill:#aea;stroke:black;"
     id="rect152" />
  <text
     width="172"
     height="20"
     x="325"
     y="934"
     style="fill:black;"
     font-family="Arial"
     font-size="16px"
     id="text152">FK_Ticket</text>
  <rect
     width="172"
     height="20"
     x="300"
     y="960"
     style="fill:#007;stroke:black;"
     id="rect153" />
  <text
     width="172"
     height="20"
     x="305"
     y="974"
     style="fill:#fff;"
     font-family="Arial"
     font-size="16px"
     id="text153"> bezahlungsart</text>
  <rect
     width="172"
     height="20"
     x="300"
     y="980"
     style="fill:none;stroke:black;"
     id="rect154" />
  <text
     width="172"
     height="20"
     x="305"
     y="994"
     style="fill:black;"
     font-family="Arial"
     font-size="16px"
     id="text154">Artname</text>
  <rect
     width="172"
     height="20"
     x="300"
     y="1000"
     style="fill:none;stroke:black;"
     id="rect155" />
  <text
     width="172"
     height="20"
     x="305"
     y="1014"
     style="fill:black;"
     font-family="Arial"
     font-size="16px"
     id="text155">Beschreibung</text>
  <rect
     width="172"
     height="20"
     x="300"
     y="1020"
     style="fill:#aea;stroke:black;"
     id="rect156" />
  <text
     width="172"
     height="20"
     x="305"
     y="1034"
     style="fill:black;"
     font-family="Arial"
     font-size="16px"
     id="text156">PK_Bezahlungsart</text>
  <rect
     width="172"
     height="20"
     x="300"
     y="320"
     style="fill:#007;stroke:black;"
     id="rect157" />
  <text
     width="172"
     height="20"
     x="917.73022"
     y="1061.967"
     style="fill:#ffffff"
     font-family="Arial"
     font-size="16px"
     id="text157">dienstleistung</text>
  <rect
     width="172"
     height="20"
     x="300"
     y="340"
     style="fill:#aea;stroke:black;"
     id="rect158" />
  <text
     width="172"
     height="20"
     x="301.00528"
     y="354"
     style="fill:#000000"
     font-family="Arial"
     font-size="16px"
     id="text158">PK_Dienstleistung</text>
  <rect
     width="172"
     height="20"
     x="300"
     y="360"
     style="fill:none;stroke:black;"
     id="rect159" />
  <text
     width="172"
     height="20"
     x="301.57596"
     y="374.57068"
     style="fill:#000000"
     font-family="Arial"
     font-size="16px"
     id="text159">Beschreibung</text>
  <rect
     width="172"
     height="20"
     x="300"
     y="380"
     style="fill:none;stroke:black;"
     id="rect160" />
  <text
     width="172"
     height="20"
     x="305"
     y="394"
     style="fill:black;"
     font-family="Arial"
     font-size="16px"
     id="text160">Kosten</text>
  <rect
     width="172"
     height="20"
     x="850"
     y="870"
     style="fill:#007;stroke:black;"
     id="rect161" />
  <text
     width="172"
     height="20"
     x="855"
     y="884"
     style="fill:#fff;"
     font-family="Arial"
     font-size="16px"
     id="text161"> kunde</text>
  <rect
     width="172"
     height="20"
     x="850"
     y="890"
     style="fill:#aea;stroke:black;"
     id="rect162" />
  <text
     width="172"
     height="20"
     x="855"
     y="904"
     style="fill:black;"
     font-family="Arial"
     font-size="16px"
     id="text162">PK_Kunde</text>
  <rect
     width="172"
     height="20"
     x="850"
     y="910"
     style="fill:none;stroke:black;"
     id="rect163" />
  <text
     width="172"
     height="20"
     x="855"
     y="924"
     style="fill:black;"
     font-family="Arial"
     font-size="16px"
     id="text163">Kundennummer</text>
  <rect
     width="172"
     height="20"
     x="850"
     y="930"
     style="fill:none;stroke:black;"
     id="rect164" />
  <text
     width="172"
     height="20"
     x="855"
     y="944"
     style="fill:black;"
     font-family="Arial"
     font-size="16px"
     id="text164">Firmenname</text>
  <rect
     width="172"
     height="20"
     x="850"
     y="950"
     style="fill:none;stroke:black;"
     id="rect165" />
  <text
     width="172"
     height="20"
     x="855"
     y="964"
     style="fill:black;"
     font-family="Arial"
     font-size="16px"
     id="text165">Email</text>
  <rect
     width="172"
     height="20"
     x="850"
     y="970"
     style="fill:none;stroke:black;"
     id="rect166" />
  <text
     width="172"
     height="20"
     x="855"
     y="984"
     style="fill:black;"
     font-family="Arial"
     font-size="16px"
     id="text166">Passwort</text>
  <rect
     width="172"
     height="20"
     x="851"
     y="18"
     style="fill:#007;stroke:black;"
     id="rect167" />
  <text
     width="172"
     height="20"
     x="856"
     y="32"
     style="fill:#fff;"
     font-family="Arial"
     font-size="16px"
     id="text167"> mitarbeiter</text>
  <rect
     width="172"
     height="20"
     x="851"
     y="38"
     style="fill:#aea;stroke:black;"
     id="rect168" />
  <text
     width="172"
     height="20"
     x="856"
     y="52"
     style="fill:black;"
     font-family="Arial"
     font-size="16px"
     id="text168">PK_Mitarbeiter</text>
  <rect
     width="172"
     height="20"
     x="851"
     y="58"
     style="fill:none;stroke:black;"
     id="rect169" />
  <text
     width="172"
     height="20"
     x="856"
     y="72"
     style="fill:black;"
     font-family="Arial"
     font-size="16px"
     id="text169">Vorname</text>
  <rect
     width="172"
     height="20"
     x="851"
     y="78"
     style="fill:none;stroke:black;"
     id="rect170" />
  <text
     width="172"
     height="20"
     x="856"
     y="92"
     style="fill:black;"
     font-family="Arial"
     font-size="16px"
     id="text170">Nachname</text>
  <rect
     width="172"
     height="20"
     x="851"
     y="98"
     style="fill:none;stroke:black;"
     id="rect171" />
  <text
     width="172"
     height="20"
     x="856"
     y="112"
     style="fill:black;"
     font-family="Arial"
     font-size="16px"
     id="text171">Position</text>
  <rect
     width="172"
     height="20"
     x="851"
     y="118"
     style="fill:none;stroke:black;"
     id="rect172" />
  <text
     width="172"
     height="20"
     x="856"
     y="132"
     style="fill:black;"
     font-family="Arial"
     font-size="16px"
     id="text172">Festnetznummer</text>
  <rect
     width="172"
     height="20"
     x="851"
     y="138"
     style="fill:none;stroke:black;"
     id="rect173" />
  <text
     width="172"
     height="20"
     x="856"
     y="152"
     style="fill:black;"
     font-family="Arial"
     font-size="16px"
     id="text173">Mobilnummer</text>
  <rect
     width="172"
     height="20"
     x="851"
     y="158"
     style="fill:none;stroke:black;"
     id="rect174" />
  <text
     width="172"
     height="20"
     x="856"
     y="172"
     style="fill:black;"
     font-family="Arial"
     font-size="16px"
     id="text174">Email</text>
  <rect
     width="172"
     height="20"
     x="851"
     y="178"
     style="fill:none;stroke:black;"
     id="rect175" />
  <text
     width="172"
     height="20"
     x="856"
     y="192"
     style="fill:black;"
     font-family="Arial"
     font-size="16px"
     id="text175">Passwort</text>
  <rect
     width="172"
     height="20"
     x="851"
     y="198"
     style="fill:none;stroke:black;"
     id="rect176" />
  <text
     width="172"
     height="20"
     x="856"
     y="212"
     style="fill:black;"
     font-family="Arial"
     font-size="16px"
     id="text176">FK_Ort</text>
  <rect
     width="172"
     height="20"
     x="851"
     y="218"
     style="fill:none;stroke:black;"
     id="rect177" />
  <text
     width="172"
     height="20"
     x="856"
     y="232"
     style="fill:black;"
     font-family="Arial"
     font-size="16px"
     id="text177">FK_Rechtegruppe</text>
  <rect
     width="172"
     height="20"
     x="340"
     y="640"
     style="fill:#007;stroke:black;"
     id="rect178" />
  <text
     width="172"
     height="20"
     x="345"
     y="654"
     style="fill:#fff;"
     font-family="Arial"
     font-size="16px"
     id="text178"> ort</text>
  <rect
     width="172"
     height="20"
     x="340"
     y="660"
     style="fill:#aea;stroke:black;"
     id="rect179" />
  <text
     width="172"
     height="20"
     x="345"
     y="674"
     style="fill:black;"
     font-family="Arial"
     font-size="16px"
     id="text179">PK_Ort</text>
  <rect
     width="172"
     height="20"
     x="340"
     y="680"
     style="fill:none;stroke:black;"
     id="rect180" />
  <text
     width="172"
     height="20"
     x="345"
     y="694"
     style="fill:black;"
     font-family="Arial"
     font-size="16px"
     id="text180">Stadt</text>
  <rect
     width="172"
     height="20"
     x="340"
     y="700"
     style="fill:none;stroke:black;"
     id="rect181" />
  <text
     width="172"
     height="20"
     x="345"
     y="714"
     style="fill:black;"
     font-family="Arial"
     font-size="16px"
     id="text181">PLZ</text>
  <rect
     width="172"
     height="20"
     x="340"
     y="720"
     style="fill:none;stroke:black;"
     id="rect182" />
  <text
     width="172"
     height="20"
     x="345"
     y="734"
     style="fill:black;"
     font-family="Arial"
     font-size="16px"
     id="text182">Straße</text>
  <rect
     width="172"
     height="20"
     x="340"
     y="740"
     style="fill:none;stroke:black;"
     id="rect183" />
  <text
     width="172"
     height="20"
     x="345"
     y="754"
     style="fill:black;"
     font-family="Arial"
     font-size="16px"
     id="text183">Hausnummer</text>
  <rect
     width="172"
     height="20"
     x="850"
     y="680"
     style="fill:#007;stroke:black;"
     id="rect184" />
  <text
     width="172"
     height="20"
     x="855"
     y="694"
     style="fill:#fff;"
     font-family="Arial"
     font-size="16px"
     id="text184"> priorität</text>
  <rect
     width="172"
     height="20"
     x="850"
     y="700"
     style="fill:#aea;stroke:black;"
     id="rect185" />
  <text
     width="172"
     height="20"
     x="855"
     y="714"
     style="fill:black;"
     font-family="Arial"
     font-size="16px"
     id="text185">PK_Priorität</text>
  <rect
     width="172"
     height="20"
     x="850"
     y="720"
     style="fill:none;stroke:black;"
     id="rect186" />
  <text
     width="172"
     height="20"
     x="855"
     y="734"
     style="fill:black;"
     font-family="Arial"
     font-size="16px"
     id="text186">Prioritätsname</text>
  <rect
     width="172"
     height="20"
     x="850"
     y="740"
     style="fill:none;stroke:black;"
     id="rect187" />
  <text
     width="172"
     height="20"
     x="855"
     y="754"
     style="fill:black;"
     font-family="Arial"
     font-size="16px"
     id="text187">Beschreibung</text>
  <rect
     width="172"
     height="20"
     x="850"
     y="390"
     style="fill:#007;stroke:black;"
     id="rect188" />
  <text
     width="172"
     height="20"
     x="855"
     y="404"
     style="fill:#fff;"
     font-family="Arial"
     font-size="16px"
     id="text188"> rechnung</text>
  <rect
     width="172"
     height="20"
     x="850"
     y="410"
     style="fill:#aea;stroke:black;"
     id="rect189" />
  <text
     width="172"
     height="20"
     x="855"
     y="424"
     style="fill:black;"
     font-family="Arial"
     font-size="16px"
     id="text189">Rechnungsnr</text>
  <rect
     width="172"
     height="20"
     x="850"
     y="430"
     style="fill:none;stroke:black;"
     id="rect190" />
  <text
     width="172"
     height="20"
     x="855"
     y="444"
     style="fill:black;"
     font-family="Arial"
     font-size="16px"
     id="text190">Ticketbeschreibung</text>
  <rect
     width="172"
     height="20"
     x="850"
     y="450"
     style="fill:none;stroke:black;"
     id="rect191" />
  <text
     width="172"
     height="20"
     x="855"
     y="464"
     style="fill:black;"
     font-family="Arial"
     font-size="16px"
     id="text191">Abrechnung</text>
  <rect
     width="172"
     height="20"
     x="850"
     y="470"
     style="fill:none;stroke:black;"
     id="rect192" />
  <text
     width="172"
     height="20"
     x="855"
     y="484"
     style="fill:black;"
     font-family="Arial"
     font-size="16px"
     id="text192">Ratenzahlung</text>
  <rect
     width="172"
     height="20"
     x="850"
     y="490"
     style="fill:none;stroke:black;"
     id="rect193" />
  <text
     width="172"
     height="20"
     x="855"
     y="504"
     style="fill:black;"
     font-family="Arial"
     font-size="16px"
     id="text193">FK_Bezahlungsart</text>
  <rect
     width="172"
     height="20"
     x="850"
     y="510"
     style="fill:none;stroke:black;"
     id="rect194" />
  <text
     width="172"
     height="20"
     x="855"
     y="524"
     style="fill:black;"
     font-family="Arial"
     font-size="16px"
     id="text194">FK_Kunde</text>
  <rect
     width="172"
     height="20"
     x="850"
     y="530"
     style="fill:none;stroke:black;"
     id="rect195" />
  <text
     width="172"
     height="20"
     x="855"
     y="544"
     style="fill:black;"
     font-family="Arial"
     font-size="16px"
     id="text195">FK_Ticket</text>
  <rect
     width="172"
     height="20"
     x="300"
     y="520"
     style="fill:#007;stroke:black;"
     id="rect196" />
  <text
     width="172"
     height="20"
     x="305"
     y="534"
     style="fill:#fff;"
     font-family="Arial"
     font-size="16px"
     id="text196"> rechtegruppe</text>
  <rect
     width="172"
     height="20"
     x="300"
     y="540"
     style="fill:none;stroke:black;"
     id="rect197" />
  <text
     width="172"
     height="20"
     x="305"
     y="554"
     style="fill:black;"
     font-family="Arial"
     font-size="16px"
     id="text197">Administrationsrechte</text>
  <rect
     width="172"
     height="20"
     x="300"
     y="560"
     style="fill:none;stroke:black;"
     id="rect198" />
  <text
     width="172"
     height="20"
     x="305"
     y="574"
     style="fill:black;"
     font-family="Arial"
     font-size="16px"
     id="text198">Bestelllimit</text>
  <rect
     width="172"
     height="20"
     x="300"
     y="580"
     style="fill:none;stroke:black;"
     id="rect199" />
  <text
     width="172"
     height="20"
     x="305"
     y="594"
     style="fill:black;"
     font-family="Arial"
     font-size="16px"
     id="text199">Helpdesk_Fernwartung</text>
  <rect
     width="172"
     height="20"
     x="300"
     y="600"
     style="fill:#aea;stroke:black;"
     id="rect200" />
  <text
     width="172"
     height="20"
     x="305"
     y="614"
     style="fill:black;"
     font-family="Arial"
     font-size="16px"
     id="text200">PK_Rechtegruppe</text>
  <rect
     width="172"
     height="20"
     x="870"
     y="790"
     style="fill:#007;stroke:black;"
     id="rect201" />
  <text
     width="172"
     height="20"
     x="875"
     y="804"
     style="fill:#fff;"
     font-family="Arial"
     font-size="16px"
     id="text201"> residiert</text>
  <rect
     width="172"
     height="20"
     x="870"
     y="810"
     style="fill:#aea;stroke:black;"
     id="rect202" />
  <text
     width="172"
     height="20"
     x="875"
     y="824"
     style="fill:black;"
     font-family="Arial"
     font-size="16px"
     id="text202">FK_Kunde</text>
  <rect
     width="172"
     height="20"
     x="870"
     y="830"
     style="fill:#aea;stroke:black;"
     id="rect203" />
  <text
     width="172"
     height="20"
     x="875"
     y="844"
     style="fill:black;"
     font-family="Arial"
     font-size="16px"
     id="text203">FK_Ort</text>
  <rect
     width="172"
     height="20"
     x="853.73022"
     y="999.96704"
     style="fill:#000077;stroke:#000000"
     id="rect204" />
  <text
     width="172"
     height="20"
     x="858.73022"
     y="1013.967"
     style="fill:#ffffff"
     font-family="Arial"
     font-size="16px"
     id="text204">session</text>
  <rect
     width="172"
     height="20"
     x="853.73022"
     y="1019.967"
     style="fill:#aaeeaa;stroke:#000000"
     id="rect205" />
  <text
     width="172"
     height="20"
     x="858.73022"
     y="1033.967"
     style="fill:#000000"
     font-family="Arial"
     font-size="16px"
     id="text205">id</text>
  <rect
     width="172"
     height="20"
     x="853.73022"
     y="1039.967"
     style="fill:none;stroke:#000000"
     id="rect206" />
  <text
     width="172"
     height="20"
     x="858.73022"
     y="1053.967"
     style="fill:#000000"
     font-family="Arial"
     font-size="16px"
     id="text206">sessionhash</text>
  <rect
     width="172"
     height="20"
     x="853.73022"
     y="1059.967"
     style="fill:none;stroke:#000000"
     id="rect207" />
  <text
     width="172"
     height="20"
     x="858.73022"
     y="1073.967"
     style="fill:#000000"
     font-family="Arial"
     font-size="16px"
     id="text207">expires_at</text>
  <rect
     width="172"
     height="20"
     x="853.73022"
     y="1079.967"
     style="fill:none;stroke:#000000"
     id="rect208" />
  <text
     width="172"
     height="20"
     x="858.73022"
     y="1093.967"
     style="fill:#000000"
     font-family="Arial"
     font-size="16px"
     id="text208">inserted_at</text>
  <rect
     width="172"
     height="20"
     x="850"
     y="270"
     style="fill:#007;stroke:black;"
     id="rect209" />
  <text
     width="172"
     height="20"
     x="855"
     y="284"
     style="fill:#fff;"
     font-family="Arial"
     font-size="16px"
     id="text209"> status</text>
  <rect
     width="172"
     height="20"
     x="850"
     y="290"
     style="fill:#aea;stroke:black;"
     id="rect210" />
  <text
     width="172"
     height="20"
     x="855"
     y="304"
     style="fill:black;"
     font-family="Arial"
     font-size="16px"
     id="text210">PK_Status</text>
  <rect
     width="172"
     height="20"
     x="850"
     y="310"
     style="fill:none;stroke:black;"
     id="rect211" />
  <text
     width="172"
     height="20"
     x="855"
     y="324"
     style="fill:black;"
     font-family="Arial"
     font-size="16px"
     id="text211">Statusname</text>
  <rect
     width="172"
     height="20"
     x="850"
     y="330"
     style="fill:none;stroke:black;"
     id="rect212" />
  <text
     width="172"
     height="20"
     x="855"
     y="344"
     style="fill:black;"
     font-family="Arial"
     font-size="16px"
     id="text212">Farbe</text>
  <rect
     width="172"
     height="20"
     x="850"
     y="350"
     style="fill:none;stroke:black;"
     id="rect213" />
  <text
     width="172"
     height="20"
     x="855"
     y="364"
     style="fill:black;"
     font-family="Arial"
     font-size="16px"
     id="text213">Beschreibung</text>
  <rect
     width="172"
     height="20"
     x="320"
     y="20"
     style="fill:#007;stroke:black;"
     id="rect214" />
  <text
     width="172"
     height="20"
     x="325"
     y="34"
     style="fill:#fff;"
     font-family="Arial"
     font-size="16px"
     id="text214"> ticket</text>
  <rect
     width="172"
     height="20"
     x="320"
     y="40"
     style="fill:#aea;stroke:black;"
     id="rect215" />
  <text
     width="172"
     height="20"
     x="325"
     y="54"
     style="fill:black;"
     font-family="Arial"
     font-size="16px"
     id="text215">PK_Ticket</text>
  <rect
     width="172"
     height="20"
     x="320"
     y="60"
     style="fill:none;stroke:black;"
     id="rect216" />
  <text
     width="172"
     height="20"
     x="325"
     y="74"
     style="fill:black;"
     font-family="Arial"
     font-size="16px"
     id="text216">Ticket_Titel</text>
  <rect
     width="172"
     height="20"
     x="320"
     y="80"
     style="fill:none;stroke:black;"
     id="rect217" />
  <text
     width="172"
     height="20"
     x="325"
     y="94"
     style="fill:black;"
     font-family="Arial"
     font-size="16px"
     id="text217">Beschreibung</text>
  <rect
     width="172"
     height="20"
     x="320"
     y="100"
     style="fill:none;stroke:black;"
     id="rect218" />
  <text
     width="172"
     height="20"
     x="325"
     y="114"
     style="fill:black;"
     font-family="Arial"
     font-size="16px"
     id="text218">InterneNotiz</text>
  <rect
     width="172"
     height="20"
     x="320"
     y="120"
     style="fill:none;stroke:black;"
     id="rect219" />
  <text
     width="172"
     height="20"
     x="325"
     y="134"
     style="fill:black;"
     font-family="Arial"
     font-size="16px"
     id="text219">InternerStatus</text>
  <rect
     width="172"
     height="20"
     x="320"
     y="140"
     style="fill:none;stroke:black;"
     id="rect220" />
  <text
     width="172"
     height="20"
     x="325"
     y="154"
     style="fill:black;"
     font-family="Arial"
     font-size="16px"
     id="text220">Erstelldatum</text>
  <rect
     width="172"
     height="20"
     x="320"
     y="160"
     style="fill:none;stroke:black;"
     id="rect221" />
  <text
     width="172"
     height="20"
     x="325"
     y="174"
     style="fill:black;"
     font-family="Arial"
     font-size="16px"
     id="text221">Bearbeitungsdatum</text>
  <rect
     width="172"
     height="20"
     x="320"
     y="180"
     style="fill:none;stroke:black;"
     id="rect222" />
  <text
     width="172"
     height="20"
     x="325"
     y="194"
     style="fill:black;"
     font-family="Arial"
     font-size="16px"
     id="text222">FK_Status</text>
  <rect
     width="172"
     height="20"
     x="320"
     y="200"
     style="fill:none;stroke:black;"
     id="rect223" />
  <text
     width="172"
     height="20"
     x="325"
     y="214"
     style="fill:black;"
     font-family="Arial"
     font-size="16px"
     id="text223">FK_Priorität</text>
  <rect
     width="172"
     height="20"
     x="320"
     y="220"
     style="fill:none;stroke:black;"
     id="rect224" />
  <text
     width="172"
     height="20"
     x="325"
     y="234"
     style="fill:black;"
     font-family="Arial"
     font-size="16px"
     id="text224">FK_Art</text>
  <rect
     width="172"
     height="20"
     x="320"
     y="240"
     style="fill:none;stroke:black;"
     id="rect225" />
  <text
     width="172"
     height="20"
     x="325"
     y="254"
     style="fill:black;"
     font-family="Arial"
     font-size="16px"
     id="text225">FK_Mitarbeiter</text>
  <rect
     width="172"
     height="20"
     x="320"
     y="260"
     style="fill:none;stroke:black;"
     id="rect226" />
  <text
     width="172"
     height="20"
     x="325"
     y="274"
     style="fill:black;"
     font-family="Arial"
     font-size="16px"
     id="text226">FK_Kunde</text>
</svg>
